<svg xmlns="http://www.w3.org/2000/svg" xmlns:xlink="http://www.w3.org/1999/xlink" viewBox="0 0 195.93 200.85"><defs><style>.cls-1{fill:url(#Degradado_sin_nombre_10);}.cls-2{fill:url(#Degradado_sin_nombre_10-2);}.cls-3{fill:url(#Degradado_sin_nombre_10-3);}.cls-4{fill:url(#Degradado_sin_nombre_10-4);}.cls-5{fill:url(#Degradado_sin_nombre_10-5);}.cls-6{fill:url(#Degradado_sin_nombre_10-6);}.cls-7{fill:url(#Degradado_sin_nombre_10-7);}.cls-8{fill:url(#Degradado_sin_nombre_10-8);}.cls-9{fill:url(#Degradado_sin_nombre_10-9);}.cls-10{fill:url(#Degradado_sin_nombre_10-10);}.cls-11{fill:url(#Degradado_sin_nombre_10-11);}.cls-12{fill:url(#Degradado_sin_nombre_10-12);}</style><linearGradient id="Degradado_sin_nombre_10" x1="136.53" y1="100.56" x2="195.93" y2="100.56" gradientUnits="userSpaceOnUse"><stop offset="0" stop-color="#455a6f"/><stop offset="0.49" stop-color="#37485a"/><stop offset="0.99" stop-color="#263241"/></linearGradient><linearGradient id="Degradado_sin_nombre_10-2" x1="53.79" y1="44.2" x2="142.15" y2="44.2" xlink:href="#Degradado_sin_nombre_10"/><linearGradient id="Degradado_sin_nombre_10-3" x1="29.51" y1="146.81" x2="140.82" y2="146.81" xlink:href="#Degradado_sin_nombre_10"/><linearGradient id="Degradado_sin_nombre_10-4" x1="56.41" y1="177.22" x2="80.31" y2="177.22" xlink:href="#Degradado_sin_nombre_10"/><linearGradient id="Degradado_sin_nombre_10-5" x1="68.13" y1="190.15" x2="89.38" y2="190.15" xlink:href="#Degradado_sin_nombre_10"/><linearGradient id="Degradado_sin_nombre_10-6" x1="0" y1="100.58" x2="59.5" y2="100.58" xlink:href="#Degradado_sin_nombre_10"/><linearGradient id="Degradado_sin_nombre_10-7" x1="74.71" y1="125.68" x2="165.42" y2="125.68" xlink:href="#Degradado_sin_nombre_10"/><linearGradient id="Degradado_sin_nombre_10-8" x1="33.13" y1="150.32" x2="63.82" y2="150.32" xlink:href="#Degradado_sin_nombre_10"/><linearGradient id="Degradado_sin_nombre_10-9" x1="44.93" y1="163.47" x2="72.48" y2="163.47" xlink:href="#Degradado_sin_nombre_10"/><linearGradient id="Degradado_sin_nombre_10-10" x1="67.2" y1="44.22" x2="128.95" y2="44.22" xlink:href="#Degradado_sin_nombre_10"/><linearGradient id="Degradado_sin_nombre_10-11" x1="89.56" y1="35.62" x2="95.58" y2="35.62" xlink:href="#Degradado_sin_nombre_10"/><linearGradient id="Degradado_sin_nombre_10-12" x1="100.73" y1="52.7" x2="106.54" y2="52.7" xlink:href="#Degradado_sin_nombre_10"/></defs><g id="Capa_2" data-name="Capa 2"><g id="Capa_1-2" data-name="Capa 1"><path class="cls-1" d="M162.91,70.29q7.17,9.39,14.33,18.77l15.52,20.46c4.53,6.92,4.52,6.92-2,12.09-2.32,1.84-4.6,3.73-6.89,5.59-2.22,1.67-4.43,3.34-6.65,5-2.94,2.2-4.73,1.93-7-1l-3.65-4.57q-7.51-9.86-15-19.72L136.66,87.14c-.54-2.42.61-4,2.46-5.39,5-3.84,9.87-7.83,14.79-11.76.67-.45,1.36-.9,2-1.36C158.68,66.76,160,67.08,162.91,70.29Z"/><path class="cls-2" d="M140.53,31.55l1.62,17.93a53.25,53.25,0,0,1-7,19.11,48.14,48.14,0,0,1-21.57,17.13,47.28,47.28,0,0,1-29.33.7C83,86,81.64,85.57,80.37,85c-7.94-3.36-13.79-9.24-19-15.88-4.17-5.73-6-12.33-7.24-19.17-.93-6.46.1-12.75,1.53-19A51.74,51.74,0,0,1,67.45,12.13C82.68-2,106.48-4.74,124.8,9l2.94,2.22A48.78,48.78,0,0,1,140.53,31.55Zm-9.65,26.57c3.77-9.26,4.13-18.53,0-27.8C124.85,15.24,108,5.83,92.17,9,78.92,11.57,69.44,19,64.72,31.9A33.05,33.05,0,0,0,66.17,60C71.51,72.11,84.77,80.16,99,79.88A35.11,35.11,0,0,0,130.88,58.12Z"/><path class="cls-3" d="M114.4,184.81c-.31,2.65-1.49,4.73-4.16,5.5a6.13,6.13,0,0,1-6.63-2.1,16.83,16.83,0,0,0-3.54-3.37c-.82-.49-2.17-.11-3.28-.12,0,1.17-.34,2.54.14,3.47,1.26,2.47,2.89,4.76,4.37,7.12-1.32,5.85-7.9,7.43-11.63,3-1.51-1.8-1.52-2.8.16-4.2a19.9,19.9,0,0,0,2-2.28c.69-1.72,1.37-3.43,2.06-5.14-.36-2.16,0-4.84-1.23-6.37-2-2.58-4.92-4.43-7.46-6.59l-.51.58v-3.05c0-5.28-1.88-7.69-8.54-10.84,1.79-4.7,1.71-9.15-2.57-12.68l-5.18-3.58c0-.55.17-1.56.23-2.56a10.19,10.19,0,0,0-5.84-10.34,10.69,10.69,0,0,0-12,1.83c-1.82,1.67-3.52,3.46-5.26,5.21s-3.3,3.39-5.17,5.31l-10.83-8.89,4.78-6.64,14.58-19.22c3-3.8,6-7.57,8.87-11.4C62,91.82,62,91.75,68.48,94.7s12.71,5.93,19.41,9.07l-13.16,8.72c-5.42,5-6.44,11.75-2.64,17.78,3.6,5.72,10.34,7.7,17,4.91,5-2.1,10-4.24,15-6.53a3,3,0,0,1,4,.76c4.66,4.77,9.46,9.42,14.21,14.11,5.32,5.37,10.62,10.78,16,16.11,2,2,3.07,4.28,2.27,7.16-3,4.57-5.93,4.93-10.65,1.28-4.15-4.23-8.23-8.54-12.54-12.6-.72-.68-2.45-.3-3.72-.41.15,1.26-.17,3,.53,3.71,3.39,3.68,7.06,7.1,10.63,10.61,1.76,3.84,1.35,6.56-1.28,8.48s-5.46,1.41-8.47-1.52c-1.69-1.64-3.35-3.31-5-5-1.18-1.21-2.72-2.19-3.83-.5-.55.85-.14,2.92.58,3.89,1.43,2,3.54,3.42,5.06,5.33A28.26,28.26,0,0,1,114.4,184.81Z"/><path class="cls-4" d="M58.39,187.74c-2.82-4-2.65-6.19.72-9.64l8.3-8.5c.54-.46,1.1-.91,1.62-1.39,5-4.63,9.28-3.48,11.28,3-1.07,1.82-1.88,3.88-3.27,5.41-3.52,3.88-7.31,7.53-11,11.26A6.58,6.58,0,0,1,58.39,187.74Z"/><path class="cls-5" d="M87.46,189.86c-2.71,2.64-5.44,5.26-8.14,7.92-3.44,3.39-6.35,3.9-9.13,1.55s-2.74-5.54.28-9.45c2.64-2.58,5.35-5.09,7.92-7.74,2.11-2.17,4.49-3.38,7.44-2.11,2.8,1.21,3.72,3.64,3.52,6.57Z"/><path class="cls-6" d="M11.7,126.85c-3.17-2.6-6.41-5.12-9.5-7.82-2.78-2.44-2.83-3.84-.69-6.84,1-1.32,1.9-2.66,2.84-4l15-19.71,14.1-18.57c1.89-2.71,3.6-3.07,6.32-1.36,1.12.7,2.22,1.42,3.33,2.14,4.53,3.61,9,7.3,13.61,10.81,2,1.5,3.12,3.14,2.67,5.66q-7.53,10.11-15.07,20.2t-15.23,20q-1.71,2.15-3.43,4.28c-1.93,2.38-3.87,2.66-6.38.85S14.23,128.73,11.7,126.85Z"/><path class="cls-7" d="M161.86,128l3.56,5.18-14.65,13.61-9.67,8.47-15-13.82c-5.74-6-11.42-12.06-17.31-17.92-.72-.71-2.73-.8-3.82-.37-6.1,2.44-12.06,5.25-18.16,7.71-5.69,2.3-11.29-1.14-12-7.17-.46-3.82,1.45-6.47,4.32-8.63,8.67-5.53,17.25-11.2,26.06-16.49a16.71,16.71,0,0,1,8.35-2.48c7.71.13,15.41.89,23.09,1.56a5.41,5.41,0,0,1,3.22,1.77c2.28,2.62,4.34,5.45,6.48,8.19Z"/><path class="cls-8" d="M40.75,149.59l12.26-12c3.29-3.22,6.48-3.56,9.14-.95,2.5,2.47,2.17,6.07-.83,9.21-.57.58-1.09,1.21-1.63,1.82-5,5-10,10-15.15,14.93a11.17,11.17,0,0,1-4.42,2.92c-2.3.61-4.85.28-6.09-2.25s-1.38-5.18.76-7.45C36.76,153.71,38.76,151.66,40.75,149.59Z"/><path class="cls-9" d="M62.5,168.15c-2.14,2.06-4.31,4.1-6.43,6.19-3.22,3.17-5.71,3.84-8.41,2.22s-3.37-4.1-2.07-8.44c5.63-5.7,11.21-11.45,16.91-17.07,2.26-2.23,6.38-1.91,8.58.4a5.88,5.88,0,0,1-.13,7.76C68.19,162.24,65.32,165.17,62.5,168.15Z"/><path class="cls-10" d="M70.48,58.58a33.47,33.47,0,0,1-1.31-25.79c4.27-9.26,11-15.8,21-18.45a31,31,0,0,1,35.15,15.3c.39.72.81,1.41,1.22,2.11a33.4,33.4,0,0,1-.67,26.34c-4.53,7.88-10.85,13.58-19.79,16A30.87,30.87,0,0,1,71.69,60.33C71.32,59.73,70.88,59.16,70.48,58.58Zm37-13.27-6.71-3.77V29.81c3.08.94,5.32,2.36,5.82,5.52.29,1.83,1.27,3.14,3,2.35.88-.39,1.69-2.25,1.58-3.35-.46-4.63-3.69-7.18-7.7-8.73-1.71-.66-3.18-1-3.15-3.31,0-.67-1.57-2-2.25-1.87-.89.14-1.73,1.29-2.34,2.18-.35.51-.19,1.36-.25,2C87.81,27.3,84.43,30.9,84.67,36s4.27,8.84,11,10.42V58.6c-3.29-.83-5.5-2.28-6.21-5.73-.19-.93-1.7-1.6-2.61-2.38-.7,1.08-2.07,2.2-2,3.22.28,4,2.83,6.7,6.3,8.48a45.27,45.27,0,0,0,4.49,1.74c.06.88-.12,1.73.21,2.27.48.78,1.36,1.87,2,1.84.88-.05,2.45-1.07,2.44-1.64-.06-2.64,1.7-3,3.57-3.72C112.22,59.42,114.05,50.51,107.49,45.31Z"/><path class="cls-11" d="M95.58,41.23c-3.84-.84-6-2.94-6-5.64s2.23-4.79,6-5.57Z"/><path class="cls-12" d="M103.15,47.71c2.09,1.6,4,3.33,3.17,6.33-.75,2.61-2.68,3.9-5.59,4.34V47Z"/></g></g></svg>