<svg xmlns="http://www.w3.org/2000/svg" xmlns:xlink="http://www.w3.org/1999/xlink" viewBox="0 0 1384.2 162.1"><defs><style>.cls-1{fill:url(#Degradado_sin_nombre);}.cls-2{fill:url(#Degradado_sin_nombre_2);}.cls-3{fill:url(#Degradado_sin_nombre_3);}.cls-4{fill:url(#Degradado_sin_nombre_4);}.cls-5{fill:url(#Degradado_sin_nombre_5);}.cls-6{fill:url(#Degradado_sin_nombre_5-2);}.cls-7{fill:url(#Degradado_sin_nombre_5-3);}.cls-8{fill:url(#Degradado_sin_nombre_8);}.cls-9{fill:url(#Degradado_sin_nombre_10);}.cls-10{fill:url(#Degradado_sin_nombre_10-2);}.cls-11{fill:url(#Degradado_sin_nombre_10-3);}.cls-12{fill:url(#Degradado_sin_nombre_10-4);}.cls-13{fill:#23b557;}.cls-14{fill:#0b5084;}</style><radialGradient id="Degradado_sin_nombre" cx="744.7" cy="1279.42" r="122.4" gradientTransform="matrix(1, 0, 0, -1, -8.32, 1345.35)" gradientUnits="userSpaceOnUse"><stop offset="0.1" stop-color="#88f995"/><stop offset="0.2" stop-color="#6cef84"/><stop offset="0.3" stop-color="#3ad95f"/><stop offset="0.4" stop-color="#1fb14a"/><stop offset="0.5" stop-color="#0c8333"/><stop offset="0.6" stop-color="#045e27"/><stop offset="0.9" stop-color="#003f1d"/></radialGradient><linearGradient id="Degradado_sin_nombre_2" x1="716.53" y1="761.45" x2="677.63" y2="753.55" gradientTransform="translate(0 -616)" gradientUnits="userSpaceOnUse"><stop offset="0" stop-color="#c8c9cb"/><stop offset="0.7" stop-color="#a6a7a9"/><stop offset="1" stop-color="#999a9c"/></linearGradient><linearGradient id="Degradado_sin_nombre_3" x1="658.56" y1="738.15" x2="795.14" y2="738.15" gradientTransform="translate(0 -616)" gradientUnits="userSpaceOnUse"><stop offset="0" stop-color="#c8c9cb"/><stop offset="0.1" stop-color="#c4c5c7"/><stop offset="0.3" stop-color="#b8b9bb"/><stop offset="0.4" stop-color="#a4a5a7"/><stop offset="0.5" stop-color="#999a9c"/><stop offset="0.7" stop-color="#abacae"/><stop offset="1" stop-color="#c8c9cb"/></linearGradient><linearGradient id="Degradado_sin_nombre_4" x1="722.6" y1="719.58" x2="816.66" y2="719.58" gradientTransform="translate(0 -616)" gradientUnits="userSpaceOnUse"><stop offset="0" stop-color="#c8c9cb"/><stop offset="1" stop-color="#999a9c"/></linearGradient><linearGradient id="Degradado_sin_nombre_5" x1="699" y1="696.73" x2="753.4" y2="696.73" gradientTransform="translate(0 -616)" gradientUnits="userSpaceOnUse"><stop offset="0" stop-color="#929395"/><stop offset="0.5" stop-color="#c8c9cb"/><stop offset="1" stop-color="#999a9c"/></linearGradient><linearGradient id="Degradado_sin_nombre_5-2" x1="658.53" y1="685.71" x2="817.63" y2="685.71" xlink:href="#Degradado_sin_nombre_5"/><linearGradient id="Degradado_sin_nombre_5-3" x1="680.84" y1="637.9" x2="794.31" y2="637.9" xlink:href="#Degradado_sin_nombre_5"/><linearGradient id="Degradado_sin_nombre_8" x1="749.2" y1="660.96" x2="816.65" y2="660.96" gradientTransform="translate(0 -616)" gradientUnits="userSpaceOnUse"><stop offset="0.4" stop-color="#c8c9cb"/><stop offset="0.8" stop-color="#999a9c"/></linearGradient><radialGradient id="Degradado_sin_nombre_10" cx="740.64" cy="670.7" r="115.8" gradientTransform="translate(0 -616)" gradientUnits="userSpaceOnUse"><stop offset="0" stop-color="#fff"/><stop offset="0.3" stop-color="#e6e7e8"/><stop offset="0.4" stop-color="#dddedf"/><stop offset="0.6" stop-color="#c5c6c8"/><stop offset="0.7" stop-color="#9fa0a2"/><stop offset="0.9" stop-color="#6d6e71"/></radialGradient><radialGradient id="Degradado_sin_nombre_10-2" cx="737.14" cy="670.7" r="115.3" xlink:href="#Degradado_sin_nombre_10"/><radialGradient id="Degradado_sin_nombre_10-3" cx="740.64" cy="671.1" r="115.2" xlink:href="#Degradado_sin_nombre_10"/><radialGradient id="Degradado_sin_nombre_10-4" cx="740.74" cy="673.1" r="113.6" xlink:href="#Degradado_sin_nombre_10"/></defs><g id="Capa_2" data-name="Capa 2"><g id="Capa_2-2" data-name="Capa 2"><path class="cls-1" d="M729.1,5.6a75.89,75.89,0,1,1-66.8,84,75.95,75.95,0,0,1,66.8-84"/><path class="cls-2" d="M693.2,144.7c-7-2.3-7.5-1.1-10.6-3.9s-3.8-4.1.6-6.6c1.6,1.6,3.3,3.2,4.4,4.1,4.5.5,20.3,2.5,30.4,2.7s11.7,12.1,11.7,12.1l-36.5-8.4Z"/><path class="cls-3" d="M670.4,108.1c-4.7-1.2-10.7-4.1-11.6-7.7-1.1-4.2,1.8-4.9,4.2-4.8.3,1.5.4,1.9.5,2.5,3.2,1.6,9,3.2,23.4,3.7,14.1.5,22.6,1.8,36.9,15.6,7,6.8,13.2,12.1,17.5,16.1a29.89,29.89,0,0,0,20.1,7.9,124.56,124.56,0,0,0,25.9-3.1c2.8-2.6,2.9-2.7,3.9-3.6,3-.4,6.5.7,1.2,6s-29.4,7.8-39,8-32.3-14.2-42.6-24.4-40.4-16.2-40.4-16.2Z"/><path class="cls-4" d="M810.7,103.1c2.4-1.2,5.4-2.1,5.9-4s-2.1-2.3-4.8-2.1c-.4,1.3-.2,1-.5,2.1-4.5,1.6-18.9,3.8-41.5,4.8-17.2.8-39.1.4-42.3.3l-4.9,2.8,11.2,3.2,49.9-.7,27.1-6.5Z"/><path class="cls-5" d="M699,68.2c7.6-1.3-.3-2.3,8.2-3.2s11.6-.3,17,4.8S750.3,93,753.3,95.9l-3.4.9-29.1-3.4L699,68.3Z"/><path class="cls-6" d="M666,58.3c-4,2.1-6.8,1.6-7.4,4.3s2.7,2.6,4.8,2.4a19.77,19.77,0,0,1,.7-2.6s22.6-4.5,45.1-4.7c12.6,0,15.3,4.9,19.6,8.6,11.1,9.7,18.8,17.3,26,23s14.1,7.1,26.1,6.9c9.8-.1,25.8-1.4,31.3-1.9a5.94,5.94,0,0,0-.2,1.3s5.3-.5,5.6-2.3c.5-2.6-5.9-3.7-8.3-3.6s-34-6.8-34-6.8L723.9,43.2,666,58.3Z"/><path class="cls-7" d="M682.6,21.5c14.7-3.6,34.1-5.8,54.9-5.8s40.2,2.2,54.9,5.8c1.6,1.1,3.7,5.2-.8,6.4-1-.9-2.7-2.6-2.7-2.6a260.51,260.51,0,0,0-51.4-5.4c-27.6,0-44.5,3.5-50.9,5a33.54,33.54,0,0,0-3.3,3.2c-2.9-.1-3.4-4.1-.6-6.6Z"/><path class="cls-8" d="M761,28.2c-2.8-1-10.1-3-10.1-3l-1.7,3s21.3,21,27.5,26.2,7.6,5.4,13.1,6.2,16,2,21.6,2.8a5.27,5.27,0,0,0,.3,1.2c3,.4,5.3-.1,4.9-1.9-.5-2-55.5-34.4-55.5-34.4Z"/><path class="cls-9" d="M817.5,68.2h0c-9.3-.8-18.7-1.5-28.1-2.1A26.35,26.35,0,0,1,773,59L751.3,38.2a45,45,0,0,0-32.9-12.8c-21,1-37.9,3.5-45.5,6.8a82.67,82.67,0,0,0-14.3,30.4h0c6.8-3.5,27.2-6.3,52.7-7.5a23.45,23.45,0,0,1,16.7,6l25,22.5a46,46,0,0,0,33.3,11.9c10.5-.6,20.9-1.3,31.4-2.3a82.46,82.46,0,0,0,.9-12.2,94.61,94.61,0,0,0-1-12.9Z"/><path class="cls-10" d="M750,96.7,719.1,68.9a15.43,15.43,0,0,0-10.8-4c-18.3.5-32.5,1.6-50.7,3.2a78.35,78.35,0,0,0-1,12.9,79.54,79.54,0,0,0,.9,12.2h0A842.22,842.22,0,0,0,750,96.7Z"/><path class="cls-11" d="M816.6,99c-8.8,4.7-41.8,8.1-79,8.1s-10.1,0-15-.2l24.2,21.7a28.72,28.72,0,0,0,19.1,7c19.3,0,30.1-3.4,36.9-6.5h0A81.86,81.86,0,0,0,816.6,99Z"/><path class="cls-12" d="M792.4,140.7a152.16,152.16,0,0,1-29,4.3c-10,.6-17.4-1.7-23.7-7.5l-22.6-20.4c-8.4-7.6-18.2-11.4-29.6-11.9-18.6-.9-24.9-3.2-28.7-4.8a81.1,81.1,0,0,0,13.5,28.8c4.4,2,12.5,3.8,22.8,5.1a28.9,28.9,0,0,1,15.4,6.6l5.6,4.8a208.82,208.82,0,0,1-33.5-5h0a81.12,81.12,0,0,0,109.8,0Z"/><path class="cls-9" d="M682.6,21.5c14.7-3.6,34.1-5.8,54.9-5.8s40.2,2.2,54.9,5.8h0a80.84,80.84,0,0,0-109.8,0Z"/><path class="cls-9" d="M779,52.2a18,18,0,0,0,10.6,4.9c12.9,1.4,22.5,3.3,26.8,5.5a79.61,79.61,0,0,0-14.3-30.4c-8.4-3.6-27.7-6.3-51.3-7l28.2,27Z"/><path class="cls-13" d="M0,60.8V44.9H133.4V60.8ZM0,89.2V73.3H133.4V89.2Zm0,28.4V101.7H133.4v15.9Z"/><path class="cls-13" d="M489.5,120.2V104.3H600.8a6.15,6.15,0,0,0,6.2-6.2,6.27,6.27,0,0,0-1.8-4.5,6,6,0,0,0-4.4-1.8H511.6a21.86,21.86,0,0,1-8.5-1.7,21,21,0,0,1-7-4.7,24.22,24.22,0,0,1-4.8-7,21.44,21.44,0,0,1,0-17.2,22.94,22.94,0,0,1,4.8-7,21,21,0,0,1,7-4.7,22.23,22.23,0,0,1,8.5-1.7H618.9V63.7H511.6a6.2,6.2,0,1,0,0,12.4h89.2a21.05,21.05,0,0,1,8.6,1.8,22.94,22.94,0,0,1,7,4.8,22.11,22.11,0,0,1,4.7,7,22.74,22.74,0,0,1,1.7,8.6,21.86,21.86,0,0,1-1.7,8.5,21,21,0,0,1-4.7,7,24.22,24.22,0,0,1-7,4.8,21.05,21.05,0,0,1-8.6,1.8H489.5Z"/><path class="cls-14" d="M1011.2,56.4V40.5h42.9V56.4Zm58.7,56.8V40.6h74.6V56.5h-58.8v56.8h-15.9Z"/><path class="cls-13" d="M352.7,120.4a28.53,28.53,0,0,1-11.3-2.3,29.43,29.43,0,0,1-9.3-6.3,31.19,31.19,0,0,1-6.3-9.3,28.53,28.53,0,0,1-2.3-11.3V76.9a29,29,0,0,1,8.6-20.6,33.18,33.18,0,0,1,9.3-6.3,26.89,26.89,0,0,1,11.3-2.3h75.1A28.53,28.53,0,0,1,439.1,50a31.19,31.19,0,0,1,9.3,6.3A29,29,0,0,1,457,76.9V91.2a28.53,28.53,0,0,1-2.3,11.3,29.74,29.74,0,0,1-15.6,15.6,28.53,28.53,0,0,1-11.3,2.3Zm0-56.8a12.55,12.55,0,0,0-5.1,1,12.18,12.18,0,0,0-4.2,2.9,12.88,12.88,0,0,0-2.8,4.2,12.69,12.69,0,0,0-1,5.2V91.2a12.69,12.69,0,0,0,1,5.2,13.43,13.43,0,0,0,2.8,4.2,13.71,13.71,0,0,0,4.2,2.9,12.55,12.55,0,0,0,5.1,1h75.1a12.69,12.69,0,0,0,5.2-1,12.18,12.18,0,0,0,4.2-2.9,11.91,11.91,0,0,0,2.8-4.2,12.69,12.69,0,0,0,1-5.2V76.9a12.69,12.69,0,0,0-1-5.2,13.43,13.43,0,0,0-2.8-4.2,13.71,13.71,0,0,0-4.2-2.9,12.69,12.69,0,0,0-5.2-1Z"/><path class="cls-14" d="M1384.2,42.6l-77.6,72.6-28.8-25.9L1249,115.2l-77.6-72.6h22.9L1249.2,94l28.6-25.7L1306.4,94l54.8-51.4Z"/><path class="cls-13" d="M277.9,104.5h15.9v15.8"/><path class="cls-13" d="M293.8,120.3l-97.1.2a33.6,33.6,0,0,1-14.1-2.9,37,37,0,0,1-11.6-7.8,35.9,35.9,0,0,1-7.8-11.6,35.15,35.15,0,0,1-2.8-14.1,35.63,35.63,0,0,1,2.8-14.2A37,37,0,0,1,171,58.3a35.9,35.9,0,0,1,11.6-7.8,35.15,35.15,0,0,1,14.1-2.8h97.1V63.6H196.7a18.92,18.92,0,0,0-7.9,1.6,20.75,20.75,0,0,0-6.5,4.4,20.26,20.26,0,0,0-6,14.5,18.92,18.92,0,0,0,1.6,7.9,20.75,20.75,0,0,0,10.9,10.9,19.25,19.25,0,0,0,7.9,1.6h81.2"/><path class="cls-14" d="M849.8,40.5H981.6V56.4h-116v56.8H849.7l.1-.1V40.5"/><path class="cls-14" d="M981.7,68.9V84.8H880.9V68.9h42.9"/></g></g></svg>