<?xml version="1.0" encoding="UTF-8"?>
<svg xmlns="http://www.w3.org/2000/svg" xmlns:xlink="http://www.w3.org/1999/xlink" viewBox="0 0 1920 925">
  <defs>
    <style>
      .cls-1 {
        isolation: isolate;
      }

      .cls-2 {
        fill: url(#Degradado_sin_nombre_181);
      }

      .cls-2, .cls-3, .cls-4, .cls-5, .cls-6, .cls-7, .cls-8, .cls-9, .cls-10, .cls-11 {
        stroke-width: 0px;
      }

      .cls-3 {
        fill: #387b4d;
      }

      .cls-4 {
        fill: url(#Degradado_sin_nombre_67);
        mix-blend-mode: overlay;
      }

      .cls-5 {
        fill: url(#Degradado_sin_nombre_170);
      }

      .cls-6 {
        fill: #235535;
      }

      .cls-7 {
        fill: url(#Degradado_sin_nombre_179-2);
      }

      .cls-8 {
        fill: url(#Degradado_sin_nombre_179);
      }

      .cls-9 {
        fill: url(#Degradado_sin_nombre_147);
      }

      .cls-10 {
        fill: url(#Degradado_sin_nombre_159);
      }

      .cls-11 {
        fill: url(#Degradado_sin_nombre_172);
      }
    </style>
    <linearGradient id="Degradado_sin_nombre_147" data-name="Degradado sin nombre 147" x1="960" y1="102.5" x2="960" y2="721.3" gradientUnits="userSpaceOnUse">
      <stop offset="0" stop-color="#7fdaeb"/>
      <stop offset="1" stop-color="#b4e8a0"/>
    </linearGradient>
    <linearGradient id="Degradado_sin_nombre_179" data-name="Degradado sin nombre 179" x1="245.2" y1="496" x2="405.6" y2="808.3" gradientUnits="userSpaceOnUse">
      <stop offset="0" stop-color="#2f7d7b"/>
      <stop offset=".5" stop-color="#30807e"/>
      <stop offset="1" stop-color="#368c8a"/>
      <stop offset="1" stop-color="#378d8b"/>
    </linearGradient>
    <linearGradient id="Degradado_sin_nombre_181" data-name="Degradado sin nombre 181" x1="-271.3" y1="636.2" x2="466.4" y2="636.2" gradientUnits="userSpaceOnUse">
      <stop offset=".3" stop-color="#9ddbaf"/>
      <stop offset=".5" stop-color="#80c8aa"/>
      <stop offset="1" stop-color="#3d9da0"/>
    </linearGradient>
    <linearGradient id="Degradado_sin_nombre_179-2" data-name="Degradado sin nombre 179" x1="832.7" y1="430.8" x2="1030.9" y2="919.8" xlink:href="#Degradado_sin_nombre_179"/>
    <linearGradient id="Degradado_sin_nombre_170" data-name="Degradado sin nombre 170" x1="507.9" y1="573.9" x2="1028" y2="573.9" gradientUnits="userSpaceOnUse">
      <stop offset="0" stop-color="#9ddbaf"/>
      <stop offset=".4" stop-color="#80c8aa"/>
      <stop offset="1" stop-color="#3d9da0"/>
    </linearGradient>
    <linearGradient id="Degradado_sin_nombre_159" data-name="Degradado sin nombre 159" x1="1413.4" y1="491.2" x2="1551.9" y2="896.4" gradientUnits="userSpaceOnUse">
      <stop offset="0" stop-color="#358482"/>
      <stop offset="1" stop-color="#358482"/>
      <stop offset="1" stop-color="#358482"/>
    </linearGradient>
    <linearGradient id="Degradado_sin_nombre_172" data-name="Degradado sin nombre 172" x1="1114.3" y1="646.9" x2="1576.3" y2="646.9" gradientUnits="userSpaceOnUse">
      <stop offset=".2" stop-color="#9ddbaf"/>
      <stop offset=".4" stop-color="#80c8aa"/>
      <stop offset="1" stop-color="#3d9da0"/>
    </linearGradient>
    <radialGradient id="Degradado_sin_nombre_67" data-name="Degradado sin nombre 67" cx="958.1" cy="319.2" fx="958.1" fy="319.2" r="640.4" gradientTransform="translate(451.7 -605.4) rotate(45)" gradientUnits="userSpaceOnUse">
      <stop offset=".3" stop-color="#dfedfe" stop-opacity="0"/>
      <stop offset=".3" stop-color="rgba(223, 237, 254, 0)" stop-opacity="0"/>
      <stop offset=".5" stop-color="rgba(223, 239, 254, .4)" stop-opacity=".4"/>
      <stop offset=".6" stop-color="rgba(223, 240, 254, .7)" stop-opacity=".7"/>
      <stop offset=".7" stop-color="rgba(223, 241, 254, .8)" stop-opacity=".8"/>
      <stop offset=".7" stop-color="rgba(223, 241, 254, 1)" stop-opacity="1"/>
      <stop offset=".8" stop-color="#dff2fe"/>
    </radialGradient>
  </defs>
  <g class="cls-1">
    <g id="Capa_2" data-name="Capa 2">
      <g>
        <g>
          <rect class="cls-9" x="0" width="1920" height="758.7"/>
          <g>
            <g>
              <g>
                <polygon class="cls-8" points="-39.6 805.1 847.4 805.1 566.1 585.3 485.5 535.6 421.7 467.3 375.9 479.7 -39.6 762.5 -39.6 805.1"/>
                <polygon class="cls-2" points="375.9 479.7 -39.6 762.5 -39.6 805.1 54.2 805.1 106.6 750.4 151.1 731.7 238.8 731.7 455.1 605.4 151.1 709.5 201.8 668.6 230.2 666.2 241.3 636.2 403.9 516.6 283.3 579.7 421.7 467.3 375.9 479.7"/>
              </g>
              <g>
                <polygon class="cls-7" points="330.8 805.1 635.6 595.5 704.1 575.2 883.5 426.1 931.7 365.6 982.4 376.4 1204.3 569.5 1419.8 665.5 1443.9 690.7 1637.8 804.3 330.8 805.1"/>
                <polygon class="cls-5" points="704.1 575.2 635.6 595.5 364 782.3 832 782.3 937.1 744.6 984.3 662.7 927.2 703.7 699.8 737.6 997.7 623 887.7 585.3 976.6 518.9 901.3 549.3 888.9 539.9 854.3 551.6 881.5 527.1 760.4 592.6 993.9 435.9 908.2 469.8 934.6 438.2 847.5 488.7 949.5 389.2 931.7 365.6 883.5 426.1 704.1 575.2"/>
              </g>
              <g>
                <polygon class="cls-10" points="1036.8 805.1 1278.5 657.8 1498.5 488.7 1585.7 494.8 1681.2 604.5 1843 692.2 1871.5 719.4 2004.3 804.4 1036.8 805.1"/>
                <polygon class="cls-11" points="1589.6 673.2 1304.1 756.3 1353.6 700.1 1399.3 696.6 1424 653.4 1560 543.4 1484.6 573.9 1487 541.1 1585.7 494.8 1498.5 488.7 1278.5 657.8 1036.8 805.1 1374.2 804.9 1589.6 673.2"/>
              </g>
            </g>
            <polygon class="cls-3" points="1875.8 732.2 1865.2 698 1857.3 730.4 1852.4 709.8 1845.8 736 1841.8 727.3 1833.9 748.2 1823.8 715.4 1818.5 736.3 1815.4 727.5 1810.5 746.6 1801.7 709.8 1793.8 747.1 1787.2 726.8 1783.2 737.6 1777 708.7 1769.5 736.7 1764.2 720.5 1758.5 744 1743.9 752.3 1733.4 706.7 1724.1 739.6 1720.6 728.2 1713.5 752.2 1705.6 721.1 1699.4 739.3 1690.6 708.3 1681.8 740.2 1676 728.5 1670.7 741 1663.2 716.9 1658.4 730.1 1652.7 704.8 1636.8 750.7 1629.3 731 1624.4 742.6 1617.8 715.9 1609 744.7 1604.6 734.3 1596.2 751.7 1581.2 753 1574.6 736.8 1568.9 750.6 1560.9 728.3 1556.5 742.6 1548.1 710.6 1537.5 742.2 1530.5 726 1523.4 744.3 1515.1 714.5 1509.8 744.6 1507.1 733.7 1501.4 752.8 1487.3 754.9 1476.3 721.3 1469.2 745.7 1464.8 733 1456.9 757 1449.4 720.6 1442.3 746.8 1437.5 730.6 1431.7 744.9 1424.2 716.9 1410.5 761.9 1400.4 737.8 1396.3 748.9 1390 738.3 1383.6 749.2 1375.7 723.8 1369.5 744.3 1366.9 734.6 1355.9 760.9 1348.4 728.1 1344 749.3 1340 738 1332.1 759.8 1321.9 727.4 1316.6 743.9 1312.6 736 1306.9 748.5 1299.9 731.1 1292.8 751.5 1288.8 742.7 1282.4 759.7 1274.7 732.6 1268.5 750.8 1265.5 742.1 1256.2 765.9 1248.7 738.6 1243.4 759.4 1235.5 738.9 1230.6 749.2 1226.2 729.9 1219.6 752.5 1215.2 740.3 1211.2 749.7 1205.9 730.8 1194 762.9 1188.7 744.5 1184.8 754.3 1179.5 737.2 1174.6 751 1169.3 728.7 1161.4 758.4 1153.4 763.1 1148.2 742.5 1143.6 754 1139.8 747.5 1135.8 753.8 1128.8 731.1 1119.1 764.8 1112.4 748.2 1105.8 765.2 1097.9 742 1093 755.8 1086.4 736.5 1080.2 755.2 1078.5 749.1 1072.3 763.8 1066.6 745.7 1060.8 762.8 1044.1 765 1037.5 747.5 1033.1 756.9 1028.2 739.8 1024.2 755.3 1021.6 749.2 1015.4 766.6 1009.2 739.4 1004.8 754.5 1001.2 748 996.5 758.7 989 742.6 982.3 755.1 977.5 744.6 972.2 755.8 964.7 728.6 958 751.9 958 725.7 947 756 936.5 721.9 928.5 754.3 923.7 733.7 917.1 759.9 913.1 751.1 905.1 772.1 895 739.3 889.7 760.1 886.6 751.4 881.8 770.5 873 733.6 865 770.9 858.4 750.6 854.4 761.5 848.3 732.5 840.8 760.5 835.5 744.3 829.7 767.8 815.2 776.1 804.6 730.6 795.3 763.4 791.8 752 784.8 776 776.8 744.9 770.7 763.2 761.8 732.1 753 764.1 747.3 752.3 742 764.8 734.5 740.7 729.6 753.9 723.9 728.7 708 774.5 700.5 754.8 695.7 766.4 689.1 739.7 680.2 768.6 675.8 758.1 667.4 775.5 652.5 776.8 645.8 760.6 640.1 774.5 632.2 752.2 627.8 766.4 619.4 734.4 608.8 766 601.7 749.9 594.7 768.1 586.3 738.4 581 768.5 578.4 757.5 572.6 776.6 558.5 778.8 547.5 745.1 540.4 769.5 536 756.8 528.1 780.9 520.6 744.5 513.5 770.7 508.7 754.5 503 768.7 495.5 740.7 483.2 781 479.8 781 471.6 761.6 467.6 772.7 461.3 762.1 454.9 773 446.9 747.7 440.8 768.1 438.1 758.5 428.7 781 426.2 781 419.6 751.9 415.2 773.2 411.2 761.8 404.3 781 402.5 781 393.1 751.3 387.9 767.7 383.9 759.9 378.2 772.4 371.1 754.9 364 775.4 360.1 766.5 354.6 781 352.9 781 346 756.4 339.8 774.7 336.7 765.9 330.8 781 325 781 319.9 762.4 315.2 781 313.8 781 306.7 762.7 301.9 773 297.5 753.7 290.8 776.4 286.4 764.1 282.5 773.5 277.2 754.7 267.4 781 263.6 781 260 768.3 256 778.1 250.7 761.1 245.9 774.9 240.5 752.5 233 781 223.2 781 219.4 766.3 214.9 777.9 211 771.4 207 777.6 200 754.9 192.5 781 187.2 781 183.7 772.1 180.2 781 174.3 781 169.1 765.8 164.3 779.6 157.7 760.4 151.5 779.1 149.7 772.9 146.3 781 141.4 781 137.8 769.5 134 781 112.4 781 108.7 771.3 104.3 780.7 99.4 763.6 95.5 779.2 92.8 773.1 90 781 84.5 781 80.5 763.2 76.1 778.4 72.4 771.8 68.4 781 67 781 60.2 766.4 53.6 778.9 48.7 768.5 43.4 779.6 35.9 752.5 27.7 781 17.6 781 8.7 758.2 5.1 781.6 0 781.9 0 925 1920 925 1920.9 726.5 1912 734.3 1910.2 721.7 1905.8 734.1 1900.7 716.5 1892 735.2 1886.8 701.9 1875.8 732.2"/>
            <polygon class="cls-6" points="1886.8 883.2 1875.7 845 1868.2 872.1 1863 861 1858.1 871.4 1851.5 858.9 1844 875 1839.3 864.3 1835.6 870.9 1831.2 855.8 1825 882.9 1818.9 865.6 1816.2 871.7 1812.2 856.1 1807.4 873.2 1803 863.8 1796.4 881.3 1779.6 879.1 1773.9 862 1768.1 880.2 1762 865.4 1760.2 871.6 1754 852.9 1747.4 872.1 1742.6 858.3 1734.6 881.5 1728 864.6 1721.4 881.2 1711.7 847.4 1704.6 870.1 1700.7 863.9 1696.8 870.4 1692.3 858.8 1687 879.4 1679.1 874.8 1671.2 845 1665.8 867.4 1661 853.6 1655.7 870.7 1651.7 860.9 1646.4 879.2 1634.5 847.2 1629.2 866 1625.3 856.6 1620.8 868.9 1614.2 846.2 1609.8 865.5 1605 855.2 1597 875.8 1591.7 854.9 1584.2 882.2 1575 858.4 1571.9 867.2 1565.7 848.9 1558 876.1 1551.6 859 1547.6 867.9 1540.6 847.4 1533.5 864.9 1527.8 852.4 1523.8 860.2 1518.5 843.8 1508.4 876.1 1500.5 854.3 1496.5 865.7 1492.1 844.4 1484.6 877.3 1473.6 851 1470.9 860.6 1464.7 840.2 1456.8 865.6 1450.4 854.6 1444.1 865.2 1440 854.1 1429.9 878.3 1416.2 833.2 1408.7 861.2 1403 847 1398.1 863.2 1391.1 837 1383.6 873.4 1375.7 849.4 1371.2 862 1364.2 837.6 1353.2 871.3 1339.1 869.1 1333.3 850 1330.7 861 1325.4 830.9 1317 860.6 1309.9 842.4 1302.9 858.5 1292.3 826.9 1283.9 858.9 1279.5 844.7 1271.6 867 1265.8 853.2 1259.2 869.3 1244.2 868 1235.9 850.6 1231.4 861.1 1222.6 832.2 1216 858.9 1211.2 847.3 1203.7 867 1187.8 821.2 1182.1 846.5 1177.2 833.2 1169.7 857.3 1164.4 844.8 1158.7 856.6 1149.9 824.6 1141 855.7 1134.9 837.4 1126.9 868.6 1119.9 844.6 1116.3 855.9 1107.1 823.1 1096.5 868.7 1082 860.3 1076.2 836.8 1070.9 853 1063.4 825 1057.3 854 1053.3 843.2 1046.7 863.4 1038.7 826.2 1029.9 863 1025.1 843.9 1022 852.6 1016.7 831.8 1006.5 864.6 998.6 843.6 994.6 852.4 988 826.2 983.2 846.8 975.2 814.4 964.6 848.5 953.7 818.2 953.7 844.4 947 821.2 939.5 848.3 934.2 837.1 929.3 847.6 922.7 835.1 915.2 851.2 910.5 840.5 906.9 847 902.4 831.9 896.3 859.1 890.1 841.7 887.4 847.9 883.5 832.3 878.6 849.4 874.2 840 867.6 857.5 850.8 855.3 845.1 838.2 839.4 856.3 833.2 841.6 831.4 847.7 825.3 829.1 818.7 848.3 813.8 834.5 805.9 857.7 799.2 840.7 792.6 857.3 782.9 823.6 775.9 846.3 771.9 840 768.1 846.6 763.5 835 758.2 855.6 750.3 850.9 742.4 821.2 737.1 843.6 732.2 829.8 726.9 846.8 723 837 717.7 855.4 705.8 823.3 700.5 842.2 696.5 832.8 692.1 845 685.5 822.4 681.1 841.7 676.2 831.4 668.3 851.9 663 831.1 655.5 858.4 646.2 834.6 643.1 843.3 637 825.1 629.3 852.3 622.9 835.2 618.9 844 611.8 823.6 604.8 841 599 828.5 595.1 836.4 589.8 819.9 579.6 852.3 571.7 830.5 567.7 841.9 563.3 820.6 555.8 853.5 544.8 827.2 542.1 836.8 536 816.3 528 841.7 521.7 830.8 515.4 841.4 511.3 830.3 501.1 854.4 487.5 809.4 480 837.4 474.2 823.1 469.4 839.3 462.3 813.1 454.8 849.5 446.9 825.5 442.5 838.2 435.4 813.8 424.4 847.4 410.3 845.3 404.6 826.2 401.9 837.2 396.6 807 388.2 836.8 381.2 818.5 374.2 834.7 363.5 803.1 355.2 835.1 350.8 820.9 342.8 843.1 337.1 829.3 330.5 845.5 315.5 844.2 307.1 826.8 302.7 837.2 293.9 808.4 287.3 835.1 282.4 823.5 274.9 843.2 259 797.3 253.3 822.6 248.4 809.4 240.9 833.5 235.7 821 229.9 832.7 221.1 800.8 212.3 831.9 206.1 813.6 198.2 844.7 191.1 820.7 187.6 832.1 178.3 799.2 167.7 844.8 153.2 836.5 147.5 813 142.2 829.2 134.7 801.2 128.5 830.1 124.5 819.3 117.9 839.6 110 802.3 101.2 839.1 96.3 820.1 93.2 828.8 87.9 807.9 77.8 840.7 69.8 819.8 65.9 828.5 59.3 802.3 54.4 822.9 46.5 790.6 35.9 824.7 24.9 794.4 18.5 819.3 12.9 804.2 6.5 824.5 0 816.6 0 925 1920.9 925 1920.9 880.3 1916.8 857.8 1908.9 879.4 1904.6 866.5 1895.9 883.9 1892.2 874 1886.8 883.2"/>
          </g>
        </g>
        <g>
          <circle class="cls-4" cx="956.6" cy="242.5" r="211.9" transform="translate(108.7 747.5) rotate(-45)"/>
          <circle class="cls-4" cx="956.6" cy="242.5" r="211.9" transform="translate(108.7 747.5) rotate(-45)"/>
        </g>
      </g>
    </g>
  </g>
</svg>