<svg xmlns="http://www.w3.org/2000/svg" xmlns:xlink="http://www.w3.org/1999/xlink" viewBox="0 0 200 200.85"><defs><style>.cls-1{fill:url(#Degradado_sin_nombre_10);}.cls-2{fill:url(#Degradado_sin_nombre_10-2);}.cls-3{fill:url(#Degradado_sin_nombre_10-3);}.cls-4{fill:url(#Degradado_sin_nombre_10-4);}</style><linearGradient id="Degradado_sin_nombre_10" x1="99.67" y1="2.78" x2="100.6" y2="196.07" gradientUnits="userSpaceOnUse"><stop offset="0" stop-color="#455a6f"/><stop offset="0.49" stop-color="#37485a"/><stop offset="0.99" stop-color="#263241"/></linearGradient><linearGradient id="Degradado_sin_nombre_10-2" x1="6.54" y1="97.28" x2="200" y2="97.28" xlink:href="#Degradado_sin_nombre_10"/><linearGradient id="Degradado_sin_nombre_10-3" x1="0" y1="66.55" x2="127.28" y2="66.55" xlink:href="#Degradado_sin_nombre_10"/><linearGradient id="Degradado_sin_nombre_10-4" x1="69.35" y1="136.98" x2="198.29" y2="136.98" xlink:href="#Degradado_sin_nombre_10"/></defs><g id="Capa_2" data-name="Capa 2"><g id="Capa_1-2" data-name="Capa 1"><path class="cls-1" d="M198.27,92.85c-.06-.59-.33-.83-1-1-6.52-1.37-13-2.82-19.55-4.17a1.73,1.73,0,0,1-1.54-1.54c-1-4-2.2-8-3.27-12.06-.23-.85-.67-.92-1.46-.89-3.31.11-6.64.08-10,.19a22.51,22.51,0,0,0-4.65.48c-3,.73-5.08,2.82-6.93,5.18a2.57,2.57,0,0,0-.53,1,1,1,0,0,0,0,.5,2.61,2.61,0,0,0,.18.78A55.93,55.93,0,0,1,153,94.93a52.3,52.3,0,0,1-.06,13,54.76,54.76,0,0,1-1.35,6.89,54,54,0,0,1-63.78,39.66,1.43,1.43,0,0,0-1.6.56Q78.1,164.26,70,173.45a9.27,9.27,0,0,0-.6.82l0,0a75.84,75.84,0,0,0,14.88,4.44c.73.14,1.25.3,1.44,1.23.89,4.51,1.87,9,2.83,13.53.52,2.45,1.06,4.91,1.58,7.34h18.09c.1-.41.2-.74.27-1.09,1.4-6.56,2.81-13.1,4.16-19.66a1.48,1.48,0,0,1,1.42-1.35,76.1,76.1,0,0,0,29-12.07,1.7,1.7,0,0,1,2.26,0c5.47,3.61,11,7.15,16.45,10.77.88.59,1.35.45,2-.26q5.47-5.61,11.05-11.11a1.37,1.37,0,0,0,.53-1,.36.36,0,0,0,0-.21,2.54,2.54,0,0,0-.34-.72q-5.46-8.4-10.89-16.84a1.7,1.7,0,0,1-.37-1,.36.36,0,0,1,0-.14,1.36,1.36,0,0,1,.26-.57,77.82,77.82,0,0,0,12.27-29.81,1.19,1.19,0,0,1,1.11-1.11c3.61-.75,7.2-1.54,10.8-2.31l10-2.15v0c0-.07,0-.14,0-.21l0-.28c0-.14,0-.28,0-.42,0-5.43,0-10.87,0-16.31A.72.72,0,0,0,198.27,92.85ZM126.33,27.09c-4.15-1.13-8.3-2.32-12.45-3.43a1.41,1.41,0,0,1-1.26-1.25c-1.36-6.56-2.78-13.1-4.14-19.66-.19-.94-.52-1.27-1.52-1.26-5.26.07-10.5.06-15.75,0-.88,0-1.2.26-1.38,1.14-1.35,6.55-2.78,13.1-4.14,19.64-.17.79-.41,1.2-1.29,1.38A76.72,76.72,0,0,0,55,35.92a1.33,1.33,0,0,1-1.77-.05c-5.6-3.69-11.25-7.33-16.85-11a1.08,1.08,0,0,0-1.67.16q-5.61,5.72-11.3,11.37a1.11,1.11,0,0,0-.18,1.69c3.7,5.66,7.33,11.37,11,17a1.3,1.3,0,0,1,0,1.67A77.94,77.94,0,0,0,22,86.38a1.33,1.33,0,0,1-1.21,1.28C14.25,89,7.71,90.48,1.15,91.85.29,92,0,92.33,0,93.22q.06,7.92,0,15.85c0,1,.27,1.34,1.24,1.54,6.55,1.37,13.1,2.82,19.65,4.2a1.18,1.18,0,0,1,1.1,1.1c.55,2.54,1.11,5.09,1.84,7.58.78,2.7,1.77,5.35,2.69,8.12a4.8,4.8,0,0,0,.6-.39c6.24-5.56,12.5-11.11,18.72-16.72a1.71,1.71,0,0,0,.41-1.4,52.73,52.73,0,0,1-.31-21.95c4-19.15,14.89-32.76,32.8-40.34,13.48-5.68,27.19-5.43,40.78-.06a1.41,1.41,0,0,0,1.75-.34,17.62,17.62,0,0,0,5.63-13.54c0-2.75.17-5.51.37-8.25C127.33,27.76,127.18,27.32,126.33,27.09Zm73.08,1c-.3-1.65-.79-3.26-1.24-5.06-.45.42-.72.64-1,.88-4.79,4.81-9.57,9.66-14.38,14.46a14.76,14.76,0,0,1-20.62.32,14.94,14.94,0,0,1-1.07-20.53c1.43-1.67,3-3.18,4.59-4.73,3.75-3.76,7.5-7.51,11.3-11.3-.2-.22-.24-.29-.3-.31a8.67,8.67,0,0,0-.9-.31,33.4,33.4,0,0,0-18.67-.33A34.2,34.2,0,0,0,131.92,36c.38,7.74-2.32,14.22-8.29,19.06-26.81,21.82-53,44.34-78.88,67.29-10.19,9-20.32,18.18-30.28,27.49a26.07,26.07,0,0,0,18.26,44.76c8-.07,14.52-3.39,19.8-9.33C63.39,173,74.42,160.91,85.09,148.51c15.94-18.53,31.66-37.26,47.42-56,4.84-5.74,9.47-11.66,14.19-17.5,4-4.9,9.08-7.38,15.38-6.69A34.21,34.21,0,0,0,199.41,28.08ZM37.69,177.44a14.2,14.2,0,1,1,14.17-14.16A14.2,14.2,0,0,1,37.69,177.44Z"/><path class="cls-2" d="M199.41,28.08c-.3-1.65-.79-3.26-1.24-5.06-.45.42-.72.64-1,.88-4.79,4.81-9.57,9.66-14.38,14.46a14.76,14.76,0,0,1-20.62.32,14.94,14.94,0,0,1-1.07-20.53c1.43-1.67,3-3.18,4.59-4.73,3.75-3.76,7.5-7.51,11.3-11.3-.2-.22-.24-.29-.3-.31a8.67,8.67,0,0,0-.9-.31,33.4,33.4,0,0,0-18.67-.33A34.2,34.2,0,0,0,131.92,36c.38,7.74-2.32,14.22-8.29,19.06-26.81,21.82-53,44.34-78.88,67.29-10.19,9-20.32,18.18-30.28,27.49a26.07,26.07,0,0,0,18.26,44.76c8-.07,14.52-3.39,19.8-9.33C63.39,173,74.42,160.91,85.09,148.51c15.94-18.53,31.66-37.26,47.42-56,4.84-5.74,9.47-11.66,14.19-17.5,4-4.9,9.08-7.38,15.38-6.69A34.21,34.21,0,0,0,199.41,28.08ZM37.69,177.44a14.2,14.2,0,1,1,14.17-14.16A14.2,14.2,0,0,1,37.69,177.44Z"/><path class="cls-3" d="M26.53,131.61c-.94-2.77-1.92-5.42-2.71-8.12-.72-2.49-1.28-5-1.83-7.58a1.19,1.19,0,0,0-1.1-1.1c-6.55-1.39-13.1-2.83-19.66-4.2-.95-.2-1.24-.56-1.23-1.54.06-5.28.05-10.56,0-15.85,0-.89.28-1.19,1.14-1.37C7.7,90.48,14.25,89,20.8,87.66A1.36,1.36,0,0,0,22,86.39a77.59,77.59,0,0,1,12.2-29.6,1.28,1.28,0,0,0,0-1.67c-3.68-5.68-7.32-11.39-11-17.06a1.1,1.1,0,0,1,.18-1.68Q29.08,30.73,34.69,25a1.08,1.08,0,0,1,1.67-.15c5.61,3.69,11.25,7.33,16.85,11a1.35,1.35,0,0,0,1.77.06A76.6,76.6,0,0,1,84.4,23.65c.88-.17,1.13-.58,1.29-1.36,1.37-6.56,2.79-13.1,4.14-19.66.18-.87.5-1.13,1.38-1.12,5.25,0,10.5.05,15.75,0,1,0,1.33.31,1.52,1.25,1.36,6.56,2.78,13.1,4.14,19.66a1.41,1.41,0,0,0,1.26,1.25c4.16,1.1,8.29,2.3,12.45,3.43.85.24,1,.67.94,1.53-.2,2.75-.41,5.5-.36,8.25a17.66,17.66,0,0,1-5.63,13.53,1.42,1.42,0,0,1-1.76.36c-13.59-5.38-27.31-5.64-40.78.06C60.83,58.38,49.9,72,45.94,91.15a52.9,52.9,0,0,0,.31,21.95,1.78,1.78,0,0,1-.41,1.41q-9.33,8.38-18.73,16.71A6.53,6.53,0,0,1,26.53,131.61Z"/><path class="cls-4" d="M198.19,110.29l-10,2.15c-3.6.77-7.19,1.57-10.8,2.31a1.19,1.19,0,0,0-1.11,1.11A77.75,77.75,0,0,1,164,145.67a1.27,1.27,0,0,0,.1,1.67c3.64,5.61,7.24,11.24,10.89,16.85.49.74.54,1.18-.16,1.87q-5.58,5.49-11.05,11.12c-.7.71-1.16.84-2,.26-5.46-3.63-11-7.17-16.45-10.79a1.71,1.71,0,0,0-2.26,0,76.26,76.26,0,0,1-29,12.07,1.48,1.48,0,0,0-1.42,1.35c-1.34,6.56-2.76,13.11-4.16,19.66-.07.34-.17.68-.27,1.09H90.08c-.52-2.43-1.06-4.89-1.58-7.34-1-4.51-1.94-9-2.84-13.54-.18-.91-.7-1.08-1.42-1.22a76.41,76.41,0,0,1-14.89-4.44c.24-.34.42-.62.63-.86q8.1-9.21,16.2-18.42a1.43,1.43,0,0,1,1.6-.56,54.41,54.41,0,0,0,61.78-73.09,2,2,0,0,1,.37-2.3c1.85-2.38,3.93-4.46,6.93-5.19a22.49,22.49,0,0,1,4.64-.48c3.32-.1,6.65-.08,10-.19.78,0,1.22,0,1.45.88,1.07,4,2.24,8,3.27,12.08a1.74,1.74,0,0,0,1.54,1.54c6.52,1.35,13,2.79,19.54,4.16.76.16,1,.45,1,1.24,0,5.44,0,10.88,0,16.32C198.27,109.66,198.22,109.93,198.19,110.29Z"/></g></g></svg>