<svg xmlns="http://www.w3.org/2000/svg" xmlns:xlink="http://www.w3.org/1999/xlink" viewBox="0 0 162 162.1"><defs><style>.cls-1{fill:url(#Degradado_sin_nombre);}.cls-2{fill:url(#Degradado_sin_nombre_2);}.cls-3{fill:url(#Degradado_sin_nombre_3);}.cls-4{fill:url(#Degradado_sin_nombre_4);}.cls-5{fill:url(#Degradado_sin_nombre_5);}.cls-6{fill:url(#Degradado_sin_nombre_5-2);}.cls-7{fill:url(#Degradado_sin_nombre_5-3);}.cls-8{fill:url(#Degradado_sin_nombre_8);}.cls-9{fill:url(#Degradado_sin_nombre_10);}.cls-10{fill:url(#Degradado_sin_nombre_10-2);}.cls-11{fill:url(#Degradado_sin_nombre_10-3);}.cls-12{fill:url(#Degradado_sin_nombre_10-4);}</style><radialGradient id="Degradado_sin_nombre" cx="88.1" cy="1279.42" r="122.4" gradientTransform="matrix(1, 0, 0, -1, -8.32, 1345.35)" gradientUnits="userSpaceOnUse"><stop offset="0.1" stop-color="#88f995"/><stop offset="0.2" stop-color="#6cef84"/><stop offset="0.3" stop-color="#3ad95f"/><stop offset="0.4" stop-color="#1fb14a"/><stop offset="0.5" stop-color="#0c8333"/><stop offset="0.6" stop-color="#045e27"/><stop offset="0.9" stop-color="#003f1d"/></radialGradient><linearGradient id="Degradado_sin_nombre_2" x1="59.93" y1="761.45" x2="21.03" y2="753.55" gradientTransform="translate(0 -616)" gradientUnits="userSpaceOnUse"><stop offset="0" stop-color="#c8c9cb"/><stop offset="0.7" stop-color="#a6a7a9"/><stop offset="1" stop-color="#999a9c"/></linearGradient><linearGradient id="Degradado_sin_nombre_3" x1="1.96" y1="738.15" x2="138.54" y2="738.15" gradientTransform="translate(0 -616)" gradientUnits="userSpaceOnUse"><stop offset="0" stop-color="#c8c9cb"/><stop offset="0.1" stop-color="#c4c5c7"/><stop offset="0.3" stop-color="#b8b9bb"/><stop offset="0.4" stop-color="#a4a5a7"/><stop offset="0.5" stop-color="#999a9c"/><stop offset="0.7" stop-color="#abacae"/><stop offset="1" stop-color="#c8c9cb"/></linearGradient><linearGradient id="Degradado_sin_nombre_4" x1="66" y1="719.58" x2="160.06" y2="719.58" gradientTransform="translate(0 -616)" gradientUnits="userSpaceOnUse"><stop offset="0" stop-color="#c8c9cb"/><stop offset="1" stop-color="#999a9c"/></linearGradient><linearGradient id="Degradado_sin_nombre_5" x1="42.4" y1="696.73" x2="96.8" y2="696.73" gradientTransform="translate(0 -616)" gradientUnits="userSpaceOnUse"><stop offset="0" stop-color="#929395"/><stop offset="0.5" stop-color="#c8c9cb"/><stop offset="1" stop-color="#999a9c"/></linearGradient><linearGradient id="Degradado_sin_nombre_5-2" x1="1.93" y1="685.71" x2="161.03" y2="685.71" xlink:href="#Degradado_sin_nombre_5"/><linearGradient id="Degradado_sin_nombre_5-3" x1="24.24" y1="637.9" x2="137.71" y2="637.9" xlink:href="#Degradado_sin_nombre_5"/><linearGradient id="Degradado_sin_nombre_8" x1="92.6" y1="660.96" x2="160.05" y2="660.96" gradientTransform="translate(0 -616)" gradientUnits="userSpaceOnUse"><stop offset="0.4" stop-color="#c8c9cb"/><stop offset="0.8" stop-color="#999a9c"/></linearGradient><radialGradient id="Degradado_sin_nombre_10" cx="84.04" cy="670.7" r="115.8" gradientTransform="translate(0 -616)" gradientUnits="userSpaceOnUse"><stop offset="0" stop-color="#fff"/><stop offset="0.3" stop-color="#e6e7e8"/><stop offset="0.4" stop-color="#dddedf"/><stop offset="0.6" stop-color="#c5c6c8"/><stop offset="0.7" stop-color="#9fa0a2"/><stop offset="0.9" stop-color="#6d6e71"/></radialGradient><radialGradient id="Degradado_sin_nombre_10-2" cx="80.54" cy="670.7" r="115.3" xlink:href="#Degradado_sin_nombre_10"/><radialGradient id="Degradado_sin_nombre_10-3" cx="84.04" cy="671.1" r="115.2" xlink:href="#Degradado_sin_nombre_10"/><radialGradient id="Degradado_sin_nombre_10-4" cx="84.14" cy="673.1" r="113.6" xlink:href="#Degradado_sin_nombre_10"/></defs><g id="Capa_2" data-name="Capa 2"><g id="Capa_2-2" data-name="Capa 2"><path class="cls-1" d="M72.5,5.6a75.89,75.89,0,1,1-66.8,84,75.95,75.95,0,0,1,66.8-84"/><path class="cls-2" d="M36.6,144.7c-7-2.3-7.5-1.1-10.6-3.9s-3.8-4.1.6-6.6c1.6,1.6,3.3,3.2,4.4,4.1,4.5.5,20.3,2.5,30.4,2.7s11.7,12.1,11.7,12.1l-36.5-8.4Z"/><path class="cls-3" d="M13.8,108.1c-4.7-1.2-10.7-4.1-11.6-7.7C1.1,96.2,4,95.5,6.4,95.6c.3,1.5.4,1.9.5,2.5,3.2,1.6,9,3.2,23.4,3.7,14.1.5,22.6,1.8,36.9,15.6,7,6.8,13.2,12.1,17.5,16.1a29.89,29.89,0,0,0,20.1,7.9,124.56,124.56,0,0,0,25.9-3.1c2.8-2.6,2.9-2.7,3.9-3.6,3-.4,6.5.7,1.2,6s-29.4,7.8-39,8-32.3-14.2-42.6-24.4-40.4-16.2-40.4-16.2Z"/><path class="cls-4" d="M154.1,103.1c2.4-1.2,5.4-2.1,5.9-4s-2.1-2.3-4.8-2.1c-.4,1.3-.2,1-.5,2.1-4.5,1.6-18.9,3.8-41.5,4.8-17.2.8-39.1.4-42.3.3L66,107l11.2,3.2,49.9-.7,27.1-6.5Z"/><path class="cls-5" d="M42.4,68.2c7.6-1.3-.3-2.3,8.2-3.2s11.6-.3,17,4.8S93.7,93,96.7,95.9l-3.4.9L64.2,93.4,42.4,68.3Z"/><path class="cls-6" d="M9.4,58.3c-4,2.1-6.8,1.6-7.4,4.3S4.7,65.2,6.8,65a19.77,19.77,0,0,1,.7-2.6s22.6-4.5,45.1-4.7c12.6,0,15.3,4.9,19.6,8.6,11.1,9.7,18.8,17.3,26,23s14.1,7.1,26.1,6.9c9.8-.1,25.8-1.4,31.3-1.9a5.94,5.94,0,0,0-.2,1.3s5.3-.5,5.6-2.3c.5-2.6-5.9-3.7-8.3-3.6s-34-6.8-34-6.8L67.3,43.2,9.4,58.3Z"/><path class="cls-7" d="M26,21.5c14.7-3.6,34.1-5.8,54.9-5.8s40.2,2.2,54.9,5.8c1.6,1.1,3.7,5.2-.8,6.4-1-.9-2.7-2.6-2.7-2.6a260.51,260.51,0,0,0-51.4-5.4c-27.6,0-44.5,3.5-50.9,5a33.54,33.54,0,0,0-3.3,3.2c-2.9-.1-3.4-4.1-.6-6.6Z"/><path class="cls-8" d="M104.4,28.2c-2.8-1-10.1-3-10.1-3l-1.7,3s21.3,21,27.5,26.2,7.6,5.4,13.1,6.2,16,2,21.6,2.8a5.27,5.27,0,0,0,.3,1.2c3,.4,5.3-.1,4.9-1.9-.5-2-55.5-34.4-55.5-34.4Z"/><path class="cls-9" d="M160.9,68.2h0c-9.3-.8-18.7-1.5-28.1-2.1A26.35,26.35,0,0,1,116.4,59L94.7,38.2A45,45,0,0,0,61.8,25.4c-21,1-37.9,3.5-45.5,6.8A82.67,82.67,0,0,0,2,62.6H2c6.8-3.5,27.2-6.3,52.7-7.5a23.45,23.45,0,0,1,16.7,6l25,22.5a46,46,0,0,0,33.3,11.9c10.5-.6,20.9-1.3,31.4-2.3A82.46,82.46,0,0,0,162,81a94.61,94.61,0,0,0-1-12.9Z"/><path class="cls-10" d="M93.4,96.7,62.5,68.9a15.43,15.43,0,0,0-10.8-4c-18.3.5-32.5,1.6-50.7,3.2A78.35,78.35,0,0,0,0,81,79.54,79.54,0,0,0,.9,93.2h0a842.22,842.22,0,0,0,92.5,3.5Z"/><path class="cls-11" d="M160,99c-8.8,4.7-41.8,8.1-79,8.1s-10.1,0-15-.2l24.2,21.7a28.72,28.72,0,0,0,19.1,7c19.3,0,30.1-3.4,36.9-6.5h0A81.86,81.86,0,0,0,160,99Z"/><path class="cls-12" d="M135.8,140.7a152.16,152.16,0,0,1-29,4.3c-10,.6-17.4-1.7-23.7-7.5L60.5,117.1c-8.4-7.6-18.2-11.4-29.6-11.9C12.3,104.3,6,102,2.2,100.4a81.1,81.1,0,0,0,13.5,28.8c4.4,2,12.5,3.8,22.8,5.1a28.9,28.9,0,0,1,15.4,6.6l5.6,4.8a208.82,208.82,0,0,1-33.5-5h0a81.12,81.12,0,0,0,109.8,0Z"/><path class="cls-9" d="M26,21.5c14.7-3.6,34.1-5.8,54.9-5.8s40.2,2.2,54.9,5.8h0A80.84,80.84,0,0,0,26,21.5Z"/><path class="cls-9" d="M122.4,52.2A18,18,0,0,0,133,57.1c12.9,1.4,22.5,3.3,26.8,5.5a79.61,79.61,0,0,0-14.3-30.4c-8.4-3.6-27.7-6.3-51.3-7l28.2,27Z"/></g></g></svg>