<svg xmlns="http://www.w3.org/2000/svg" viewBox="0 0 533.87 651.41"><defs><style>.cls-1{fill:#0cbc53;}.cls-2{fill:#fdfefe;}</style></defs><g id="Capa_2" data-name="Capa 2"><g id="Capa_1-2" data-name="Capa 1"><path class="cls-1" d="M84.22,477c8.19-5,14.77-9.24,21.63-13,13.73-7.53,24.3-18.17,32.53-31.39,17-27.34,43.27-38.94,75.26-33.48,1.77.3,3.61,1,5.48-.16.16-4.5-2.6-8.23-3.48-12.52-5.58-27.21,7.39-52.05,33.24-61.89,6.24-2.37,6.78-3.75,2.55-9.06-15.85-19.86-24.53-42.27-21.73-68.16,1.92-17.74,9.49-33.26,19.8-47.43a200.46,200.46,0,0,1,30.65-33.48c0,7.79,0,15.57,0,23.36a89.46,89.46,0,0,0,11.44,43.1c16.26,29.66,13.57,57.77-8,83.6-3.69,4.42-2.71,6,2.28,8,21.8,9,33.75,25.34,34.42,49,.18,6.35,2.23,7.45,7.68,6.48,14.75-2.63,29.53-2.75,44.14.77,21.4,5.14,37.93,17.26,50.36,35.39,12.9,18.81,18.67,40.37,26.2,63.65-7.58-4.09-13.45-6.95-19-10.33-14.8-9-30.73-13.34-48.06-13.86-32.19-1-53.64-17.53-65.25-47.12-2.22-5.66-3.95-5.18-7.28-1.14-6.74,8.19-14.86,14.55-25.28,17.4-4.17,1.14-4.25,4.14-4.24,7.55q.1,33.36.09,66.73,0,67.08-.1,134.16c0,4.83-.77,9.65-.82,14.48-.05,4.62-3.44,3.69-5.92,3.73a268.76,268.76,0,0,1-90.15-13.49c-48.84-16.3-89.78-44.31-122.09-84.19C14.15,496.4-6,430.7,1.55,357.14,9.07,283.88,42,223.9,98.69,177.15a247.49,247.49,0,0,1,90.77-47.62c3.85-1.09,5.8-2.63,5.73-7.07q-.37-23.64,0-47.27c.08-5.13-1.54-7-6.77-6.52-15.12,1.5-28.13-2.45-36.4-16.16-7.68-12.73-8.42-26.56-2.4-39.82C153.86,3.35,163.88.51,173.16.45c62.32-.37,124.66-.88,187,.19,26.29.45,31.54,20.41,24.1,45.84-3.73,12.73-18,23.27-34,22.39-12.05-.67-12-.12-12,11.8,0,13.9.18,27.81-.11,41.7-.09,4.33,1.62,5.93,5.47,7.14C429.93,156.62,489,212.87,518.76,298.1c24.69,70.69,18.53,140.28-14.22,207.55-5.71,11.73-5.76,11.71-17,5.26-9.75-5.62-9.91-5.7-4.94-15.61,22-43.79,30.76-90.15,24.9-138.7-8.2-68.05-39.84-123.27-94.15-165.25C385.72,170,354.5,156,320.51,148.16c-5.4-1.24-6.93-3.44-6.88-8.8q.4-44.15.07-88.28c0-5.24,1.5-6.84,6.72-6.6,9.71.46,19.45.27,29.18.28,9.5,0,15.28-7.38,13.32-16.71-.62-2.94-2.45-3.66-5-3.72-2.78-.07-5.56-.12-8.34-.13q-84.81,0-169.61.11c-3.45,0-8.89-2.64-9.47,4.52-.73,8.85,2.2,14.55,9.19,15.42,5.71.71,11.56.34,17.35.38s11.59.21,17.37-.06c3.73-.17,4.84,1.3,4.84,4.82-.06,30.82-.1,61.63.08,92.45,0,4.88-2.83,5.52-6.42,6.32a234.46,234.46,0,0,0-100,48.58c-44.13,36.47-72.49,82.78-83.7,139.07-13.84,69.47,0,133.32,41.1,190.92,27.22,38.17,63,65.74,106.71,83.07a250.81,250.81,0,0,0,69.89,16.51c6.09.57,8.38-.84,8.35-7.67q-.44-92.46-.06-184.91c0-5.43-1-8.85-6.9-9.79a16.42,16.42,0,0,1-5.65-2.56c-6.85-4.19-7.28-5.62-11.48,4.32-10.49,24.85-25.87,45.35-52.09,55.33-20.36,7.75-41.34,6.78-62.3,2.93C106.35,482.05,96,479.53,84.22,477ZM267,345.36c-15.5-.09-28.72,13.07-28.8,28.69s12.93,28.94,28.44,29.23A29.32,29.32,0,0,0,296.45,374C296.43,358,283.56,345.46,267,345.36ZM340.56,403c3.95,11.77,12.62,18.91,22.86,24.25,12.74,6.65,26.9,3.62,41,6.27C392.46,411,368.8,399.86,340.56,403ZM197.88,421.77c-11.14.71-21,4.32-29.46,11.87-7.52,6.74-11.49,16.06-17.79,23.67-1,1.23-2.65,2.59-1.86,4.16,1,2.08,3.3.82,5,.68,22.14-1.76,37.54-13.72,48.43-32.34,1.23-2.11,3.89-4.36,2.69-6.74C203.56,420.52,200.23,422.51,197.88,421.77ZM261.82,227c-14.71,23.43-8.33,49.63,4.1,67.43,3.11,4.45,4.2.06,5.11-1.55,8.08-14.22,8.83-28.88,1.84-43.74C269.45,241.83,265.7,234.71,261.82,227Z"/><path class="cls-2" d="M267,345.36c16.53.1,29.4,12.64,29.42,28.68a29.32,29.32,0,0,1-29.78,29.24c-15.51-.29-28.52-13.67-28.44-29.23S251.53,345.27,267,345.36Zm20,29.15c.06-11.36-8.13-19.71-19.45-19.85s-19.79,8-20,19.33a19.73,19.73,0,1,0,39.45.52Z"/><path class="cls-2" d="M340.56,403c28.24-3.1,51.9,8,63.87,30.52-14.11-2.65-28.27.38-41-6.27C353.18,421.87,344.51,414.73,340.56,403Z"/><path class="cls-2" d="M197.88,421.77c2.35.74,5.68-1.25,7,1.3,1.2,2.38-1.46,4.63-2.69,6.74-10.89,18.62-26.29,30.58-48.43,32.34-1.67.14-3.92,1.4-5-.68-.79-1.57.84-2.93,1.86-4.16,6.3-7.61,10.27-16.93,17.79-23.67C176.85,426.09,186.74,422.48,197.88,421.77Z"/><path class="cls-2" d="M261.82,227c3.88,7.76,7.63,14.88,11.05,22.14,7,14.86,6.24,29.52-1.84,43.74-.91,1.61-2,6-5.11,1.55C253.49,276.58,247.11,250.38,261.82,227Z"/><path class="cls-1" d="M287.06,374.51a19.73,19.73,0,1,1-39.45-.52c.21-11.28,8.67-19.46,20-19.33S287.12,363.15,287.06,374.51Z"/></g></g></svg>